<svg width="325" height="53" viewBox="0 0 325 53" fill="none" xmlns="http://www.w3.org/2000/svg">
<path d="M28.1494 49V26.931H11.7126V49H0.678161V0.83908H11.7126V20.4943H28.1494V0.83908H39.2989V49H28.1494ZM221.385 42.4483C224.45 42.4483 225.983 41.3755 225.983 39.2299V10.4943C225.983 8.34866 224.45 7.27586 221.385 7.27586H216.328C213.186 7.27586 211.615 8.34866 211.615 10.4943V39.2299C211.615 41.3755 213.186 42.4483 216.328 42.4483H221.385ZM237.132 40.3793C237.132 43.6743 235.14 46.0881 231.155 47.6207L236.672 52.908H224.718L220.581 48.8851H214.144C208.243 48.8851 204.105 47.2375 201.73 43.9425C200.964 42.9464 200.581 41.7586 200.581 40.3793V9.34483C200.581 6.81609 201.883 4.78544 204.489 3.25287C207.171 1.64368 210.389 0.83908 214.144 0.83908H223.569C229.469 0.83908 233.607 2.48659 235.983 5.78161C236.749 6.77778 237.132 7.96552 237.132 9.34483V40.3793Z" fill="#CDB380"/>
<path d="M80.3464 49H47.3578V0.83908H80.3464V7.27586H58.3923V20.1494H75.6337V26.5862H58.3923V42.5632H80.3464V49ZM180.895 49V0.83908H191.929V49H180.895Z" fill="#036564"/>
<path d="M88.4711 49V0.83908H99.8504L117.092 30.2644V0.954022H128.241V49H116.632L99.5056 20.0345V49H88.4711ZM267.255 42.5632C270.32 42.5632 271.853 41.4904 271.853 39.3448V0.83908H283.002V40.3793C283.002 42.9847 281.661 45.092 278.979 46.7011C276.374 48.2337 273.194 49 269.439 49H260.014C254.113 49 249.975 47.3525 247.6 44.0575C246.834 42.9847 246.45 41.7586 246.45 40.3793V0.83908H257.485V39.3448C257.485 41.4904 259.056 42.5632 262.198 42.5632H267.255Z" fill="#033649"/>
<path d="M157.477 21.1839C160.619 21.1839 162.19 20.1111 162.19 17.9655V10.4943C162.19 8.34866 160.619 7.27586 157.477 7.27586H148.627V21.1839H157.477ZM159.891 27.6207L175.753 49H164.144L148.627 28.0805V49H137.592V0.83908H159.776C163.454 0.83908 166.596 1.60536 169.201 3.13793C171.883 4.6705 173.224 6.77778 173.224 9.45977V19C173.224 21.682 171.922 23.7893 169.316 25.3218C166.711 26.8544 163.569 27.6207 159.891 27.6207ZM324.682 49H291.694V0.83908H324.682V7.27586H302.728V20.1494H319.97V26.5862H302.728V42.5632H324.682V49Z" fill="#E8DDCB"/>
</svg>
